0.16m3min_grf.mot
version=1
nRows=15
nColumns 19
inDegrees=yes
endheader
time	1_ground_force_vx	1_ground_force_vy	1_ground_force_vz	1_ground_force_px	1_ground_force_py	1_ground_force_pz	1_ground_torque_x	1_ground_torque_y	1_ground_torque_z	2_ground_force_vx	2_ground_force_vy	2_ground_force_vz	2_ground_force_px	2_ground_force_py	2_ground_force_pz	2_ground_torque_x	2_ground_torque_y	2_ground_torque_z
            0.005000	           -0.410072	           -5.050271	            0.621364	           -0.336015	            0.005786	           -0.307821	           -0.963667	            0.278399	           -0.352193	           -0.042732	           -1.284856	           -1.224710	           -0.351437	            0.004821	           -0.587165	           -0.601102	           -0.039107	           -0.244932
            0.005500	           -0.456157	           -5.590487	            0.481591	           -0.336015	            0.005786	           -0.307821	           -0.938865	            0.232483	           -0.429579	           -0.039950	           -2.022453	           -0.945770	           -0.351437	            0.004821	           -0.587165	           -0.582105	           -0.086639	           -0.150858
            0.006000	           -0.273717	           -3.606546	            0.260359	           -0.336015	            0.005786	           -0.307821	           -0.817887	           -0.081290	           -0.517467	           -0.137576	           -0.918404	           -0.801003	           -0.351437	            0.004821	           -0.587165	           -0.675800	           -0.162264	           -0.245338
            0.006500	            0.139278	           -3.967588	            0.395357	           -0.336015	            0.005786	           -0.307821	           -0.785634	           -0.441985	           -0.407498	            0.236600	           -0.733237	           -0.706649	           -0.351437	            0.004821	           -0.587165	           -0.544175	           -0.190349	           -0.188945
            0.007000	           -0.044388	           -3.606699	            0.305646	           -0.336015	            0.005786	           -0.307821	           -0.819604	           -0.488134	           -0.453039	            0.144894	           -1.286020	           -0.708581	           -0.351437	            0.004821	           -0.587165	           -0.582070	           -0.105276	           -0.226326
            0.007500	           -0.136104	           -4.687917	            0.209524	           -0.336015	            0.005786	           -0.307821	           -0.871223	           -0.275834	           -0.399477	            0.099873	           -1.837295	           -1.085957	           -0.351437	            0.004821	           -0.587165	           -0.544754	           -0.038837	           -0.263806
            0.008000	           -0.227889	           -4.147138	            0.212070	           -0.336015	            0.005786	           -0.307821	           -0.815375	            0.075465	           -0.420837	            0.102614	           -2.574558	           -0.900873	           -0.351437	            0.004821	           -0.587165	           -0.526250	            0.036920	           -0.282394
            0.008500	           -0.456583	           -4.508500	            0.394517	           -0.336015	            0.005786	           -0.307821	           -0.935661	            0.297185	           -0.429348	            0.145497	           -1.469666	           -0.850022	           -0.351437	            0.004821	           -0.587165	           -0.582666	            0.055555	           -0.263453
            0.009000	           -0.410869	           -5.048895	            0.300372	           -0.336015	            0.005786	           -0.307821	           -0.875057	            0.158563	           -0.428119	            0.335513	           -2.205248	           -0.946586	           -0.351437	            0.004821	           -0.587165	           -0.619684	           -0.086708	           -0.169692
            0.009500	           -0.227484	           -3.246792	            0.445215	           -0.336015	            0.005786	           -0.307821	           -0.900858	           -0.220171	           -0.459520	            0.333520	           -1.652803	           -0.944615	           -0.351437	            0.004821	           -0.587165	           -0.600641	           -0.171311	           -0.283104
            0.010000	           -0.365418	           -4.147164	            0.212412	           -0.336015	            0.005786	           -0.307821	           -0.946641	           -0.507039	           -0.410074	            0.097379	           -1.102041	           -0.707904	           -0.351437	            0.004821	           -0.587165	           -0.581865	           -0.161992	           -0.226528
            0.010500	           -0.090863	           -4.506660	           -0.019097	           -0.336015	            0.005786	           -0.307821	           -0.823931	           -0.470004	           -0.379681	           -0.039265	           -2.206769	           -0.899499	           -0.351437	            0.004821	           -0.587165	           -0.487947	           -0.161585	           -0.245418
            0.011000	           -0.044499	           -4.867968	            0.162667	           -0.336015	            0.005786	           -0.307821	           -0.925340	           -0.155881	           -0.338519	            0.006194	           -1.837801	           -1.038989	           -0.351437	            0.004821	           -0.587165	           -0.525919	           -0.039172	           -0.150713
            0.011500	           -0.181444	           -4.328378	            0.440463	           -0.336015	            0.005786	           -0.307821	           -0.881080	            0.148945	           -0.305609	            0.002268	           -0.733413	           -0.894262	           -0.351437	            0.004821	           -0.587165	           -0.544994	            0.036516	           -0.188135
            0.012000	           -0.181228	           -6.130838	            0.386878	           -0.336015	            0.005786	           -0.307821	           -0.859268	            0.296923	           -0.323762	            0.054352	           -2.205761	           -1.087251	           -0.351437	            0.004821	           -0.587165	           -0.526089	           -0.001092	           -0.225979
